<?xml version="1.0" encoding="utf-8"?>
<!-- Generator: Adobe Illustrator 21.1.0, SVG Export Plug-In . SVG Version: 6.00 Build 0)  -->
<svg version="1.1" id="Layer_1" xmlns="http://www.w3.org/2000/svg" xmlns:xlink="http://www.w3.org/1999/xlink" x="0px" y="0px"
	 viewBox="0 0 307.6 36.3" style="enable-background:new 0 0 307.6 36.3;" xml:space="preserve">
<style type="text/css">
	.st0{fill:#313131;}
</style>
<g>
	<path class="st0" d="M73.2,1.3C73.5,1.9,74,3.4,74.7,6c0.3,1.1,0.5,2.4,0.5,3.7h-2.5c-1.7-2.4-3.5-4.2-5.3-5.3
		c-1.8-1.1-3.9-1.6-6.1-1.6c-2.8,0-5,1.1-6.7,3.3c-2.3,2.9-3.5,7-3.5,12.3c0,3.1,0.2,5.2,0.6,6.5c0.6,2.1,1.5,3.8,2.5,5.1
		c0.8,1,1.7,1.8,3,2.4c1.6,0.8,3.3,1.2,5.1,1.2c2,0,3.9-0.6,5.7-1.8s3.6-3.1,5.3-5.5c0.7-0.1,1.5-0.2,2.6-0.2
		c-0.1,0.7-0.2,1.4-0.4,2.1c-0.1,0.3-0.3,1.4-0.6,3.4l-0.2,0.8l-0.4,1.3c-1.1,0.8-2.6,1.5-4.6,1.9c-2,0.4-4.4,0.6-7.3,0.6
		c-2.2,0-4.3-0.2-6.3-0.6c-2-0.4-3.6-1.1-5-2c-2-1.3-3.7-2.7-4.8-4.2c-1.2-1.5-2-3.2-2.6-4.9s-0.8-3.8-0.8-6c0-5.4,1.8-9.8,5.3-13.3
		C51.5,1.7,56,0,61.4,0c2.2,0,4.3,0.1,6.3,0.3C69.7,0.6,71.5,0.9,73.2,1.3z"/>
	<path class="st0" d="M79.7,34.3c0.2-0.2,0.5-0.4,0.9-0.4c0.9-0.2,1.8-0.6,2.6-1.1c0.2-0.4,0.2-1.9,0.2-4.4c0-4.5-0.1-7.6-0.3-9.2
		c0-0.3-0.2-0.5-0.4-0.8c-0.4-0.2-1.1-0.4-1.8-0.6c-0.4-0.1-0.6-0.3-0.6-0.6l-0.1-1c1.3-0.2,2.5-0.6,3.6-1.4
		c1.1-0.7,1.9-1.5,2.4-2.2c0.3-0.4,0.5-0.7,0.8-0.9l1.9-0.1c0.1,0.4,0.1,0.8,0.1,1c0,0.2,0,0.4,0,0.7c0,0.6,0,1.1,0,1.6
		c0,0.2,0,0.9,0,2.2c0.7-1.3,1.3-2.1,1.6-2.5c0.2-0.2,0.6-0.6,1.4-1.3c0.6-0.4,1.3-0.7,2.1-0.7c1,0,1.8,0.3,2.5,1s1.1,1.4,1.1,2.2
		s-0.3,1.6-0.8,2.3c-0.5,0.7-1.2,1-2.1,1c-0.8,0-1.6-0.3-2.4-1c-0.5-0.4-0.9-0.6-1.2-0.6l-0.2,0c-0.4,0.1-0.7,0.5-1,1
		c-0.5,0.9-0.8,1.8-0.8,2.8l0.1,0.7c0.1,1.3,0.1,4.4,0.2,9.3c0.1,0.4,0.2,0.9,0.5,1.3c0.3,0.3,0.7,0.4,1,0.5
		c0.3,0.1,0.9,0.2,1.7,0.3c0.8,0.1,1.3,0.2,1.5,0.3c0.2,0.2,0.3,0.4,0.3,0.8c0,0.2-0.1,0.5-0.2,0.8h-2.5l-5.1-0.2
		c-1.3,0-2.5,0.1-3.5,0.2h-0.5c-0.1,0-1.1,0-2.8,0.1c-0.1-0.3-0.1-0.5-0.1-0.7C79.6,34.8,79.6,34.6,79.7,34.3z"/>
	<path class="st0" d="M100.6,35.7l-0.1-1.8l3-0.4c0.4-0.1,0.8-0.3,0.9-0.6c0.2-0.2,0.3-0.8,0.3-1.6V31c0-0.2,0-0.6,0-1.2
		c0-0.6,0-1.1,0-1.5c0-0.3,0-1-0.1-2l0-1.3l0-1.3l0.1-4.4c0-0.6-0.1-1.1-0.2-1.7c-0.2-0.3-0.6-0.5-1.1-0.7c-0.5-0.2-1.4-0.3-2.7-0.4
		V15c1.8-0.1,3.5-0.5,4.9-1.2c1-0.4,2-1.2,3.1-2.3h1.8c0.1,2.2,0.1,5.1,0.1,8.7l-0.2,11c0,0.8,0,1.4,0.1,2c0.6,0.2,1.5,0.4,2.7,0.6
		c0.5,0.1,0.9,0.2,1.2,0.3l-0.1,1.5c-0.5,0-0.8,0-1.1,0c-0.3,0-0.7,0-1.2-0.1c-1.8-0.1-4.3-0.1-7.3-0.1c-0.9,0-1.7,0-2.6,0.1
		C101.5,35.6,100.9,35.7,100.6,35.7z M104.4,3.5c0-1,0.3-1.8,0.9-2.4s1.4-0.9,2.4-0.9c1.1,0,1.9,0.3,2.6,1c0.7,0.7,1.1,1.4,1.1,2.2
		c0,0.6-0.1,1.2-0.4,1.8c-0.3,0.6-0.7,1.1-1.3,1.5s-1.2,0.6-1.8,0.6c-0.9,0-1.7-0.4-2.4-1.1C104.8,5.4,104.4,4.6,104.4,3.5z"/>
	<path class="st0" d="M119.1,15.2c2.1-0.9,3.6-1.8,4.6-2.6c0.9-0.9,2-2.3,3-4.2h1.5c0.2,0.5,0.2,1,0.2,1.5c0,0.9,0,1.7,0,2.2
		l-0.1,1.6c0,0.1,0,0.3,0,0.6l0.6,0c0.1,0,0.9,0,2.5-0.1c0.1,0,0.8,0,2-0.1c0.1,0.5,0.2,0.9,0.2,1.3c0,0.4-0.1,0.9-0.2,1.4
		c-0.6,0.1-1,0.2-1.3,0.2c-0.1,0-0.4,0-0.9-0.1h-1.4l-0.5,0l-1.3,0.1l-0.1,10.3c0,2,0,3.2,0.1,3.7c0.1,0.5,0.3,1,0.6,1.4
		c0.4,0.2,0.9,0.3,1.4,0.3c0.5,0,0.8,0,1.1-0.1c0.2-0.1,0.6-0.3,1.2-0.8c0.1-0.1,0.3-0.2,0.5-0.4c0.4,0.3,0.8,0.7,1.1,1l0.1,0.3
		c-0.6,1-1.5,1.8-2.7,2.3c-1.1,0.6-2.4,0.8-3.6,0.8c-1.7,0-3-0.5-4.1-1.6c-1-1.1-1.6-2.7-1.6-4.9l0.1-4.7V17l-0.8-0.1l-1.9,0.1
		l-0.4-0.1c-0.1-0.2-0.2-0.3-0.2-0.5C119,16.3,119,15.9,119.1,15.2z"/>
	<path class="st0" d="M138.5,15.2c2.1-0.9,3.6-1.8,4.6-2.6c0.9-0.9,2-2.3,3-4.2h1.5c0.2,0.5,0.2,1,0.2,1.5c0,0.9,0,1.7,0,2.2
		l-0.1,1.6c0,0.1,0,0.3,0,0.6l0.6,0c0.1,0,0.9,0,2.5-0.1c0.1,0,0.8,0,2-0.1c0.1,0.5,0.2,0.9,0.2,1.3c0,0.4-0.1,0.9-0.2,1.4
		c-0.6,0.1-1,0.2-1.3,0.2c-0.1,0-0.4,0-0.9-0.1h-1.4l-0.5,0l-1.3,0.1l-0.1,10.3c0,2,0,3.2,0.1,3.7c0.1,0.5,0.3,1,0.6,1.4
		c0.4,0.2,0.9,0.3,1.4,0.3c0.5,0,0.8,0,1.1-0.1c0.2-0.1,0.6-0.3,1.2-0.8c0.1-0.1,0.3-0.2,0.5-0.4c0.4,0.3,0.8,0.7,1.1,1l0.1,0.3
		c-0.6,1-1.5,1.8-2.7,2.3c-1.1,0.6-2.4,0.8-3.6,0.8c-1.7,0-3-0.5-4.1-1.6c-1-1.1-1.6-2.7-1.6-4.9l0.1-4.7V17l-0.8-0.1L139,17
		l-0.4-0.1c-0.1-0.2-0.2-0.3-0.2-0.5C138.5,16.3,138.5,15.9,138.5,15.2z"/>
	<path class="st0" d="M158.7,21.4c0.5-1.5,0.9-2.5,1.2-3c1-1.5,2.1-2.6,3.2-3.5c1.1-0.8,2.2-1.4,3.1-1.6c1.2-0.3,2.1-0.5,2.9-0.5
		c1.7,0,3.1,0.1,4.1,0.4c1,0.3,1.9,0.6,2.6,1.1c1,0.7,1.8,1.4,2.4,2.1c0.6,0.7,1.1,1.6,1.5,2.5s0.6,2.1,0.6,3.5l-3-0.1
		c-0.8,0-2.6-0.1-5.4-0.2c-1-0.1-1.8-0.1-2.2-0.1c-0.1,0-1.1,0-2.9,0.1h-2.3c0,0.3-0.1,0.5-0.1,0.6c0,1,0.1,2,0.4,3s0.6,2,1.1,2.8
		s1,1.5,1.7,2.1c0.7,0.6,1.4,1,2.1,1.2l1.6,0.5c1.4,0,2.3,0,2.8-0.1c0.9-0.2,1.6-0.4,2.3-0.7c0.7-0.3,1.4-0.7,2.4-1.4
		c0.6,0.5,1.2,0.9,1.6,1.3c-1.6,1.7-3.2,3-4.9,3.8c-1.7,0.8-3.6,1.2-5.7,1.2c-1.4,0-2.6-0.1-3.5-0.4c-1.2-0.3-2.3-0.8-3.3-1.5
		c-1-0.7-1.8-1.5-2.5-2.5c-0.7-1-1.2-2-1.6-3c-0.4-1.4-0.7-2.5-0.7-3.3C158.3,24,158.4,22.6,158.7,21.4z M174.3,20.2
		c0-1-0.2-2-0.6-2.9s-1-1.6-1.8-2.2c-0.8-0.5-1.6-0.8-2.4-0.8c-1.2,0-2.3,0.5-3.3,1.6c-1,1.1-1.5,2.5-1.6,4.3l6.1,0.1
		c0.4,0,1,0,1.7-0.1c0.5,0,0.9-0.1,1.1-0.1C173.8,20.2,174,20.2,174.3,20.2z"/>
	<path class="st0" d="M185.5,34.3c0.2-0.2,0.5-0.4,0.9-0.4c0.9-0.2,1.8-0.6,2.6-1.1c0.2-0.4,0.2-1.9,0.2-4.4c0-4.5-0.1-7.6-0.3-9.2
		c0-0.3-0.2-0.5-0.4-0.8c-0.4-0.2-1.1-0.4-1.8-0.6c-0.4-0.1-0.6-0.3-0.6-0.6l-0.1-1c1.3-0.2,2.5-0.6,3.6-1.4
		c1.1-0.7,1.9-1.5,2.4-2.2c0.3-0.4,0.5-0.7,0.8-0.9l1.9-0.1c0.1,0.4,0.1,0.8,0.1,1c0,0.2,0,0.4,0,0.7c0,0.6,0,1.1,0,1.6
		c0,0.2,0,0.9,0,2.2c0.7-1.3,1.3-2.1,1.6-2.5c0.2-0.2,0.6-0.6,1.4-1.3c0.6-0.4,1.3-0.7,2.1-0.7c1,0,1.8,0.3,2.5,1s1.1,1.4,1.1,2.2
		s-0.3,1.6-0.8,2.3c-0.5,0.7-1.2,1-2.1,1c-0.8,0-1.6-0.3-2.4-1c-0.5-0.4-0.9-0.6-1.2-0.6l-0.2,0c-0.4,0.1-0.7,0.5-1,1
		c-0.5,0.9-0.8,1.8-0.8,2.8l0.1,0.7c0.1,1.3,0.1,4.4,0.2,9.3c0.1,0.4,0.2,0.9,0.5,1.3c0.3,0.3,0.7,0.4,1,0.5
		c0.3,0.1,0.9,0.2,1.7,0.3c0.8,0.1,1.3,0.2,1.5,0.3c0.2,0.2,0.3,0.4,0.3,0.8c0,0.2-0.1,0.5-0.2,0.8h-2.5l-5.1-0.2
		c-1.3,0-2.5,0.1-3.5,0.2h-0.5c-0.1,0-1.1,0-2.8,0.1c-0.1-0.3-0.1-0.5-0.1-0.7C185.4,34.8,185.4,34.6,185.5,34.3z"/>
	<path class="st0" d="M238.7,1.3c0.2,0.5,0.7,2.1,1.4,4.6c0.3,1.1,0.5,2.4,0.5,3.7h-2.5c-1.7-2.4-3.5-4.2-5.3-5.3
		c-1.8-1.1-3.9-1.6-6.1-1.6c-2.8,0-5,1.1-6.7,3.3c-2.3,2.9-3.5,7-3.5,12.3c0,3.1,0.2,5.2,0.6,6.5c0.6,2.1,1.5,3.8,2.5,5.1
		c0.8,1,1.7,1.8,3,2.4c1.6,0.8,3.3,1.2,5.1,1.2c2,0,3.9-0.6,5.7-1.8s3.6-3.1,5.3-5.5c0.7-0.1,1.5-0.2,2.6-0.2
		c-0.1,0.7-0.2,1.4-0.4,2.1c-0.1,0.3-0.3,1.4-0.6,3.4l-0.2,0.8l-0.4,1.3c-1.1,0.8-2.6,1.5-4.6,1.9c-2,0.4-4.4,0.6-7.3,0.6
		c-2.2,0-4.3-0.2-6.3-0.6c-2-0.4-3.6-1.1-5-2c-2-1.3-3.7-2.7-4.8-4.2c-1.2-1.5-2-3.2-2.6-4.9s-0.8-3.8-0.8-6c0-5.4,1.8-9.8,5.3-13.3
		c3.5-3.5,8-5.2,13.5-5.2c2.2,0,4.3,0.1,6.3,0.3C235.2,0.6,237,0.9,238.7,1.3z"/>
	<path class="st0" d="M245.3,13.9c0.2-0.1,0.4-0.1,0.5-0.2h8l0.6,0.1l0.1,1.8l-0.1,2.6l0,1.4l0,4.1v2.8c0,1.8,0.1,3.2,0.3,4.3
		c0.3,0.8,0.7,1.4,1.3,1.8c0.6,0.4,1.3,0.6,2.2,0.6c0.8,0,1.5-0.1,2-0.2c0.5-0.2,1.1-0.5,1.7-0.9c0.7-0.4,1.1-0.8,1.3-1
		c0.5-0.6,0.9-1.1,1.1-1.6l0.2-6.7c0-0.7,0.1-1.3,0.1-1.7c0-0.5,0-1.1,0-1.8s0-1.1,0-1.2l0-1l-0.1-0.6c-0.4-0.3-1-0.4-1.8-0.5
		l-1.8-0.1c-0.1-0.1-0.2-0.1-0.3-0.2c-0.1-0.4-0.1-0.6-0.1-0.8c0-0.2,0-0.5,0.1-0.9c0.6-0.1,1.1-0.1,1.5-0.1l4.2,0.1
		c1.1,0,2.5,0,4.1-0.1l0.1,2l-0.1,2.6l0.1,3.2l0,4.6l-0.1,2.1l0,1.4c-0.1,0.9-0.1,1.5-0.1,1.6c0,0.4,0.1,0.8,0.2,1
		c0.2,0.2,0.3,0.3,0.5,0.3l2.5-0.1l0.3,0.1c0.1,0.6,0.1,1,0.1,1.1c0,0.1,0,0.3-0.1,0.6c-1,0-1.6,0.1-2,0.2c-1.9,0.4-4,1.1-6.3,1.9
		l-1.1-0.1l0-4.4c-0.2,0.2-0.5,0.5-0.9,0.8c-1.6,1.4-2.9,2.3-4.1,2.8c-1.1,0.5-2.3,0.7-3.6,0.7c-1.5,0-2.7-0.3-3.8-0.9
		c-1.1-0.6-1.9-1.4-2.4-2.3c-0.4-0.7-0.6-1.7-0.8-3c0-0.3-0.1-2.1-0.1-5.3l0-0.9c0.1-1.8,0.1-3.1,0.1-3.9c0-1.4,0-2.4-0.1-2.9
		c0-0.2-0.1-0.5-0.3-0.8c-0.3-0.1-0.5-0.2-0.9-0.2c-1.1-0.2-1.9-0.4-2.2-0.6c-0.1-0.1-0.1-0.2-0.1-0.3c0-0.1,0-0.3,0-0.4
		C245.3,14.6,245.3,14.3,245.3,13.9z"/>
	<path class="st0" d="M276.9,34.5c0.4-0.3,0.9-0.4,1.6-0.5c1.2-0.1,2-0.3,2.1-0.6c0.4-0.5,0.5-1.4,0.5-2.9v-7.6l-0.1-1.8v-5.4
		l-0.1-6.2V8.4c0-1.5-0.1-2.6-0.4-3.3c-0.6-0.4-1.3-0.6-2-0.6c-0.4,0-0.8,0-1.2-0.1c-0.1-0.4-0.1-0.8-0.1-1c0-0.1,0-0.3,0.1-0.5
		c1.4-0.2,2.9-0.5,4.4-1.1c1.5-0.6,2.7-1.1,3.5-1.7l0.7,0c0.2,0,0.4,0,0.7,0c0.1,6.2,0.2,10.5,0.2,12.8c0,0.7,0,1.2-0.1,1.6v0.2
		l0.1,0.5v11.9l0.1,3.9v0.6c0,0.8,0.1,1.3,0.4,1.6c0.2,0.2,0.7,0.4,1.4,0.4c0.4,0,1.1,0.1,2.2,0.3c0.1,0.4,0.1,0.7,0.1,0.9
		c0,0.2,0,0.4-0.1,0.8l-2.1-0.1c-1.2-0.1-2.7-0.1-4.5-0.1l-1,0c-1,0-2.5,0.1-4.4,0.2h-2L276.9,34.5z"/>
	<path class="st0" d="M293.5,34.5c0.4-0.3,0.9-0.4,1.6-0.5c1.2-0.1,2-0.3,2.1-0.6c0.4-0.5,0.5-1.4,0.5-2.9v-7.6l-0.1-1.8v-5.4
		l-0.1-6.2V8.4c0-1.5-0.1-2.6-0.4-3.3c-0.6-0.4-1.3-0.6-2-0.6c-0.4,0-0.8,0-1.2-0.1c-0.1-0.4-0.1-0.8-0.1-1c0-0.1,0-0.3,0.1-0.5
		c1.4-0.2,2.9-0.5,4.4-1.1c1.5-0.6,2.7-1.1,3.5-1.7l0.7,0c0.2,0,0.4,0,0.7,0c0.1,6.2,0.2,10.5,0.2,12.8c0,0.7,0,1.2-0.1,1.6v0.2
		l0.1,0.5v11.9l0.1,3.9v0.6c0,0.8,0.1,1.3,0.4,1.6c0.2,0.2,0.7,0.4,1.4,0.4c0.4,0,1.1,0.1,2.2,0.3c0.1,0.4,0.1,0.7,0.1,0.9
		c0,0.2,0,0.4-0.1,0.8l-2.1-0.1c-1.2-0.1-2.7-0.1-4.5-0.1l-1,0c-1,0-2.5,0.1-4.4,0.2h-2L293.5,34.5z"/>
</g>
<path class="st0" d="M28.7,17.4c-1-0.8-2.2-1.4-3.3-1.9c0.8-0.3,1.6-0.6,2.4-0.9c1.7-0.8,3.3-2,4.4-3.5c1.5-2,1.9-5.3,1.3-5.3
	c-0.5,0-0.3,2.4-2.3,4.4c-1.2,1.1-2.7,1.9-4.2,2.4c-0.8,0.3-1.6,0.5-2.4,0.7c0.8-0.8,1.4-1.7,2-2.6C28,8,28.7,5,28.6,2.1
	c0-0.4-0.5-0.4-0.6-0.1c-0.7,2.7-1.7,5.3-3.3,7.4c-1.2,1.7-2.8,3-4.6,3.8c0-0.2,0-0.4,0-0.6c0-2.4-1.5-4.4-3.3-4.4s-3.3,2-3.3,4.4
	c0,0.2,0,0.4,0,0.6c-1.8-0.8-3.4-2.1-4.6-3.8C7.4,7.3,6.4,4.8,5.7,2C5.6,1.7,5.1,1.7,5.1,2.1C5,5,5.7,8,7.2,10.6
	c0.5,0.9,1.2,1.8,2,2.6c-0.8-0.2-1.6-0.4-2.3-0.7c-1.6-0.5-3.1-1.3-4.2-2.4c-2-2-1.8-4.4-2.3-4.4C-0.3,5.7,0.1,9,1.5,11
	c1.1,1.6,2.7,2.7,4.4,3.5c0.8,0.4,1.6,0.7,2.4,0.9C7.1,16,6,16.6,5,17.4c-1.7,1.3-3,3.1-3.7,5.1c-0.7,2-1.7,6-0.8,6
	c0.6,0,0.3-2.4,2-5.5c0.9-1.6,2.2-2.9,3.7-3.9c0.9-0.5,1.9-1,2.9-1.3c-1.2,1.6-2.1,3.3-2.6,5.1c-1.1,3.4-1.4,6.9-1.2,10.3
	c0,0.4,0.6,0.5,0.7,0c0.5-3.3,1.3-6.6,2.6-9.6c0.9-1.9,1.9-3.7,3.3-5c0,0,0,0,0,0c-0.6,1.5-1,3.4-1,5.3c0,5.3,2.7,9.7,6,9.7
	s6-4.3,6-9.7c0-2-0.4-3.8-1-5.3c0,0,0,0,0,0c1.4,1.3,2.5,3.1,3.3,5c1.3,3,2,6.3,2.6,9.6c0.1,0.4,0.7,0.4,0.7,0
	c0.2-3.4-0.1-6.9-1.2-10.3c-0.6-1.8-1.4-3.5-2.6-5.1c1,0.3,2,0.8,2.9,1.3c1.5,1,2.8,2.3,3.7,3.9c1.7,3,1.4,5.5,2,5.5
	c0.9,0-0.1-4-0.8-6C31.7,20.6,30.4,18.7,28.7,17.4z M19.7,26.5C18.7,29.7,16,30.7,16,24c0-4.1,1-6,2.2-6
	C20.3,18,20.6,23.4,19.7,26.5z"/>
</svg>
